<svg height="auto" width="auto" viewBox="0 0 370 96" fill="none" xmlns="http://www.w3.org/2000/svg">
<path d="M41.6667 0L0 23.8095V71.4286L41.6667 95.2381L83.3214 71.4357L83.3333 71.4167V23.8095L41.6667 0ZM41.6667 9.16548L71.2976 26.0952L63.2833 30.6762L41.6667 18.3298L20.0548 30.6798L12.0333 26.0952L41.6667 9.16548ZM59.2798 37.5548V53.1012L45.6774 45.3333V29.7857L59.2798 37.5548ZM37.656 29.7857V45.3298L24.0571 53.1V37.5548L37.656 29.7857ZM37.656 83.7821L8.01786 66.8476V32.9667L16.0345 37.5476V62.2631L37.656 74.619V83.7821ZM28.0607 59.9726L41.6631 52.2L55.269 59.9726L41.6667 67.7429L28.0607 59.9726ZM75.3155 66.8476L45.6774 83.7821V74.619L67.2976 62.2679V37.5476L75.3143 32.9667L75.3155 66.8476Z" fill="#007DFC"/>
<path d="M111.646 61.6284H124.701V69.2656H103V27.6224H111.646V61.6284ZM158.073 54.0201L157.986 56.0087H136.026C136.372 60.9367 139.657 63.3 143.605 63.3C146.574 63.3 148.879 61.9166 150.003 59.2941L157.612 60.4181C155.652 66.4127 150.32 69.8422 143.663 69.8422C134.095 69.8422 127.841 64.1935 127.841 54.4527C127.841 44.712 134.268 39.0054 143.404 39.0054C151.79 39.0054 158.044 43.6452 158.073 54.0201ZM143.463 44.8843C139.687 44.8843 137.065 46.6423 136.258 50.5906H149.861C149.428 46.8152 146.863 44.8843 143.463 44.8843ZM188.68 61.225C188.68 64.8563 189.026 67.1617 189.401 68.4587V69.2657H181.648L180.985 66.0378C178.766 68.718 174.933 69.842 171.475 69.842C166.806 69.842 162.253 67.767 162.253 61.5996C162.253 55.461 166.835 53.386 173.031 52.0315L177.901 50.9363C180.005 50.4464 180.755 49.7259 180.755 48.5155C180.755 45.6047 178.103 44.7977 175.769 44.7977C172.772 44.7977 170.495 45.9793 169.976 49.3223L162.627 47.9966C163.866 41.858 168.362 39.0627 176.23 39.0627C182.167 39.0627 188.68 40.8207 188.68 49.7546L188.68 61.225ZM174.069 64.2221C178.017 64.2221 181.187 61.5995 181.187 55.7202L174.155 57.7088C171.85 58.2564 170.178 59.0633 170.178 61.0518C170.178 63.1845 171.936 64.2221 174.069 64.2221ZM204.704 44.3366C206.203 41.714 210.093 39.2931 214.387 39.2931V46.6999C208.105 46.6999 205.108 48.5443 205.108 54.8269V69.2656H196.75V39.6393H204.704L204.704 44.3366ZM236.751 39.0638C243.87 39.0638 247.789 42.7527 247.789 49.3237V69.2668H239.46V51.1106C239.46 47.1623 237.01 45.7213 234.157 45.7213C230.728 45.7213 227.615 47.4504 227.558 52.9261V69.2668H219.258V39.6405H227.558V42.926C229.633 40.4763 232.832 39.0638 236.751 39.0638ZM283.18 27.6224H291.826V69.2656H283.18V52.1467H265.572V69.2656H256.926V27.6224H265.572V44.6258H283.18V27.6224ZM321.135 39.6393H329.435V69.2656H321.567L321.365 65.6921C319.29 68.3146 316.005 69.8422 311.941 69.8422C304.823 69.8422 300.904 66.1244 300.904 59.5824V39.6393H309.232V57.7955C309.232 61.7148 311.682 63.1559 314.564 63.1559C317.993 63.1559 321.106 61.4267 321.135 55.9799L321.135 39.6393ZM355.43 39.0638C363.211 39.0638 369.667 44.8277 369.667 54.5112C369.667 64.1947 363.211 69.9585 355.43 69.9585C351.338 69.9585 347.764 68.3158 346.092 65.4049L345.891 69.2668H338.023V25H346.323V43.2426C348.052 40.5624 351.511 39.0638 355.43 39.0638ZM353.499 63.0694C357.908 63.0694 361.367 59.8129 361.367 54.51C361.367 49.1785 357.908 45.9216 353.499 45.9216C349.118 45.9216 345.66 49.3222 345.66 54.51C345.66 59.6978 349.089 63.0694 353.499 63.0694Z" fill="#404B69"/>
</svg>
